<?xml version="1.0" encoding="utf-8"?>
<!-- Generator: Adobe Illustrator 22.1.0, SVG Export Plug-In . SVG Version: 6.00 Build 0)  -->
<svg version="1.1" id="Layer_1" xmlns="http://www.w3.org/2000/svg" xmlns:xlink="http://www.w3.org/1999/xlink" x="0px" y="0px"
	 viewBox="0 0 48 48" style="enable-background:new 0 0 48 48;" xml:space="preserve">
<style type="text/css">
	.st0{fill:#111111;}
</style>
<title>activity</title>
<g transform="translate(0.5 0.5)">
	<path class="st0" d="M29.5,40C29.5,40,29.5,40,29.5,40c-0.6,0-1.1-0.4-1.4-0.9l-10.8-27l-6,12.1C11.1,24.7,10.6,25,10,25H1
		c-0.8,0-1.5-0.7-1.5-1.5S0.2,22,1,22h8.1l7.1-14.2C16.4,7.3,17,7,17.6,7c0.6,0,1.1,0.4,1.3,0.9l10.8,27l6-12.1
		c0.2-0.5,0.8-0.8,1.3-0.8h9c0.8,0,1.5,0.7,1.5,1.5S46.8,25,46,25h-8.1l-7.1,14.2C30.6,39.7,30.1,40,29.5,40z"/>
</g>
</svg>
