<?xml version="1.0" encoding="utf-8"?>
<!-- Generator: Adobe Illustrator 22.1.0, SVG Export Plug-In . SVG Version: 6.00 Build 0)  -->
<svg version="1.1" id="Layer_1" xmlns="http://www.w3.org/2000/svg" xmlns:xlink="http://www.w3.org/1999/xlink" x="0px" y="0px"
	 viewBox="0 0 48 48" style="enable-background:new 0 0 48 48;" xml:space="preserve">
<style type="text/css">
	.st0{fill:#111111;}
</style>
<path class="st0" d="M45.8,23.8C45.5,23.2,37.2,9,24.5,9C11.7,9,3.5,23.2,3.2,23.8c-0.3,0.5-0.3,1,0,1.5C3.5,25.8,11.8,40,24.5,40
	c12.6,0,21-14.1,21.3-14.7C46.1,24.8,46.1,24.2,45.8,23.8z M24.5,37c-9.4,0-16.4-9.7-18.2-12.5C8.1,21.7,15,12,24.5,12
	c9.4,0,16.4,9.7,18.2,12.5C40.9,27.3,33.9,37,24.5,37z M24.5,16c-4.7,0-8.5,3.8-8.5,8.5c0,4.7,3.8,8.5,8.5,8.5
	c4.7,0,8.5-3.8,8.5-8.5C33,19.8,29.2,16,24.5,16z M24.5,30c-3,0-5.5-2.5-5.5-5.5c0-3,2.5-5.5,5.5-5.5c3,0,5.5,2.5,5.5,5.5
	C30,27.5,27.5,30,24.5,30z"/>
</svg>
