<?xml version="1.0" encoding="UTF-8"?><svg id="Layer_1" xmlns="http://www.w3.org/2000/svg" width="48" height="48" viewBox="0 0 48 48"><path d="m37,47.5H11c-3.03271,0-5.5-2.46777-5.5-5.5v-26c0-3.03271,2.46729-5.5,5.5-5.5h26c3.03223,0,5.5,2.46729,5.5,5.5v26c0,3.03223-2.46777,5.5-5.5,5.5ZM11,13.5c-1.37842,0-2.5,1.12158-2.5,2.5v26c0,1.37891,1.12158,2.5,2.5,2.5h26c1.37891,0,2.5-1.12109,2.5-2.5v-26c0-1.37842-1.12109-2.5-2.5-2.5H11Z"/><path d="m32,19.5c-.82812,0-1.5-.67139-1.5-1.5v-8c0-3.58398-2.91602-6.5-6.5-6.5s-6.5,2.91602-6.5,6.5v8c0,.82861-.67139,1.5-1.5,1.5s-1.5-.67139-1.5-1.5v-8C14.5,4.76172,18.76172.5,24,.5s9.5,4.26172,9.5,9.5v8c0,.82861-.67188,1.5-1.5,1.5Z"/></svg>