<?xml version="1.0" encoding="UTF-8"?><svg id="Layer_1" xmlns="http://www.w3.org/2000/svg" width="48" height="48" viewBox="0 0 48 48"><path d="m39.98438,45.5c-.16797,0-.33691-.00781-.50586-.02246-6.41602-.69531-12.64453-2.90723-18.03564-6.39746-5.00098-3.1709-9.3335-7.49512-12.51709-12.49609-3.50342-5.39697-5.71973-11.64209-6.40137-18.0498-.07129-.79199.01855-1.55127.26465-2.28076.24658-.72998.63525-1.38867,1.15576-1.95752.52051-.56934,1.14209-1.01562,1.84717-1.32617.70654-.31104,1.45508-.46924,2.2251-.46973h6.03516c1.33105-.00098,2.62256.45996,3.63916,1.33252,1.0166.87158,1.68018,2.08252,1.86865,3.40918.24072,1.82617.68701,3.61328,1.32715,5.32568.37158.98633.45166,2.05566.23047,3.08887-.2207,1.0332-.73096,1.97705-1.47559,2.72754l-1.7334,1.72998c2.49951,4.02979,5.90625,7.4292,9.94482,9.92334l1.73145-1.72754c.75879-.74902,1.70312-1.25781,2.73828-1.47754,1.0332-.21973,2.10352-.13965,3.0918.23145,1.71387.63867,3.50488,1.08398,5.31934,1.32227,1.35645.19141,2.5791.86426,3.45605,1.89648.87305,1.02734,1.33691,2.33496,1.30859,3.68262v6.00391c.00293.76855-.15332,1.51953-.46289,2.22656-.31152.70996-.75781,1.33301-1.32812,1.85449-.56934.52246-1.23145.91309-1.96484,1.16016-.57031.19336-1.16016.29004-1.75879.29004ZM14.09277,5.5h-6.07422c-.35107.00049-.69385.07275-1.01709.21533-.32129.1416-.60498.34521-.84277.60498-.2373.25977-.41455.56006-.52686.89258-.1123.33203-.15332.67822-.12158,1.02832.62939,5.91602,2.68408,11.70605,5.93896,16.72021,2.95605,4.64307,6.96875,8.64795,11.61182,11.59326,5.01221,3.24414,10.7876,5.29492,16.71533,5.9375.32324.02734.67383-.01172,1.00684-.125.33691-.11328.63867-.29102.89844-.5293.26172-.23926.46484-.52344.60742-.84668.14062-.32129.21094-.66406.20996-1.01758v-6.06348c.01562-.61719-.19629-1.21582-.5957-1.68652-.40039-.47168-.95898-.77832-1.57324-.86523-2.02441-.2666-4.03613-.7666-5.96582-1.48535-.45508-.1709-.94629-.20801-1.41797-.10645-.47363.10059-.9043.33301-1.24805.67188l-2.54883,2.54297c-.47852.47656-1.21484.57422-1.7998.24316-5.26758-2.98926-9.63477-7.34863-12.62988-12.60498-.33496-.58789-.23486-1.32666.24365-1.8042l2.5542-2.54932c.3335-.33643.56592-.76611.6665-1.23682.10059-.47119.06396-.95752-.10547-1.40771-.7207-1.92773-1.22217-3.93652-1.49121-5.97314-.0835-.58984-.38574-1.1416-.84961-1.53906-.4585-.39404-1.0415-.60938-1.64502-.60938Z"/></svg>