<?xml version="1.0" encoding="utf-8"?>
<!-- Generator: Adobe Illustrator 23.0.4, SVG Export Plug-In . SVG Version: 6.00 Build 0)  -->
<svg version="1.1" id="Layer_1" xmlns="http://www.w3.org/2000/svg" xmlns:xlink="http://www.w3.org/1999/xlink" x="0px" y="0px"
	 viewBox="0 0 48 48" style="enable-background:new 0 0 48 48;" xml:space="preserve">
<style type="text/css">
	.st0{fill:#111111;}
</style>
<path class="st0" d="M26.1,32.2c-0.6,0.6-1.4,1-2.2,1c-0.8,0.1-1.6-0.3-2.2-0.9c-0.6-0.6-1.5-0.6-2.1,0s-0.6,1.5,0,2.1
	c1.1,1.1,2.7,1.8,4.3,1.8c0,0,0.1,0,0.1,0c1.6,0,3.2-0.7,4.3-1.9c0.6-0.6,0.5-1.5-0.1-2.1C27.6,31.5,26.7,31.6,26.1,32.2z
	 M42.1,21.6v-1c0-4.7-3.9-8.6-8.6-8.6h-8V6c0-0.8-0.7-1.5-1.5-1.5S22.5,5.2,22.5,6v6h-8.1c-4.7,0-8.6,3.9-8.6,8.6v1
	c-3.1,0.3-5.5,3-5.5,6.2c0,3.2,2.4,5.8,5.5,6.2v4.1c0,3,2.4,5.4,5.4,5.4h25.5c3,0,5.4-2.4,5.4-5.4V34c3.1-0.3,5.6-3,5.6-6.2
	C47.7,24.6,45.2,21.9,42.1,21.6z M5.6,30.9c-1.3-0.4-2.3-1.6-2.3-3.1s1-2.7,2.3-3.1V30.9z M39.1,38.1c0,1.3-1.1,2.4-2.4,2.4H11.2
	c-1.3,0-2.4-1.1-2.4-2.4V20.6c0-3.1,2.5-5.6,5.6-5.6h19.1c3.1,0,5.6,2.5,5.6,5.6V38.1z M42.4,30.9v-6.1c1.3,0.4,2.3,1.6,2.3,3.1
	S43.7,30.5,42.4,30.9z M33.1,23.5c-2.4,0-4.3,1.9-4.3,4.3s1.9,4.3,4.3,4.3s4.3-1.9,4.3-4.3S35.5,23.5,33.1,23.5z M33.1,29.1
	c-0.7,0-1.3-0.6-1.3-1.3s0.6-1.3,1.3-1.3s1.3,0.6,1.3,1.3S33.8,29.1,33.1,29.1z M14.9,23.5c-2.4,0-4.3,1.9-4.3,4.3s1.9,4.3,4.3,4.3
	s4.3-1.9,4.3-4.3S17.3,23.5,14.9,23.5z M14.9,29.1c-0.7,0-1.3-0.6-1.3-1.3s0.6-1.3,1.3-1.3s1.3,0.6,1.3,1.3S15.6,29.1,14.9,29.1z"/>
</svg>
