<?xml version="1.0" encoding="utf-8"?>
<!-- Generator: Adobe Illustrator 27.2.0, SVG Export Plug-In . SVG Version: 6.00 Build 0)  -->
<svg version="1.1" id="Layer_1" xmlns="http://www.w3.org/2000/svg" xmlns:xlink="http://www.w3.org/1999/xlink" x="0px" y="0px"
	 viewBox="0 0 48 48" style="enable-background:new 0 0 48 48;" xml:space="preserve">
<style type="text/css">
	.st0{fill:#141414;}
</style>
<path class="st0" d="M47,21.5c0-1.6-0.7-3.1-1.8-4.2c-1.1-1.1-2.6-1.7-4.2-1.7L40.8,5.5c0-0.6-0.3-1.1-0.8-1.4
	c-0.5-0.3-1.1-0.2-1.6,0.1c-6.8,4.4-14.2,6.9-22.8,7.5L9,11.8c-2.2,0-4.2,0.9-5.7,2.5C1.7,15.9,0.9,18,1,20.2L1,24.4
	c0.1,2.9,1.7,5.6,4.2,7c1,0.6,2.1,0.9,3.3,1l3.2,11.1c0.1,0.4,0.4,0.7,0.8,1c0.2,0.1,0.5,0.2,0.8,0.2c0.1,0,0.3,0,0.4-0.1l5.7-1.6
	c0.8-0.2,1.3-1.1,1.1-2l-2.4-8.5c7.7,0.6,14.5,2.8,20.9,6.6c0.5,0.3,1.1,0.3,1.6,0c0.5-0.3,0.8-0.8,0.8-1.4l-0.2-10.1
	c1.6,0,3.1-0.7,4.2-1.8C46.5,24.6,47.1,23.1,47,21.5z M43.8,21.5c0,0.7-0.3,1.4-0.8,2c-0.5,0.5-1.2,0.8-1.9,0.8L41,18.8
	c0.7,0,1.4,0.3,2,0.8C43.5,20.1,43.8,20.8,43.8,21.5z M14.3,29.2l-5,0.1c-1.3,0-2.6-0.5-3.6-1.4c-1-0.9-1.5-2.2-1.5-3.5l-0.1-4.3
	c0-1.3,0.5-2.6,1.4-3.6c0.9-1,2.2-1.5,3.5-1.5l5-0.1L14.3,29.2z M38.1,34.9c-2.7-1.4-5.6-2.6-8.5-3.5c-3.8-1.2-7.9-1.9-12.1-2.2
	l-0.3-14.5c4.2-0.4,8.2-1.3,12-2.6c2.9-1,5.7-2.3,8.4-3.8L38.1,34.9z M17,40.3l-2.6,0.8l-2.5-8.7l2.8-0.1L17,40.3z"/>
</svg>
