<svg width="24" height="24" viewBox="0 0 24 24" fill="none" xmlns="http://www.w3.org/2000/svg">
<path fill-rule="evenodd" clip-rule="evenodd" d="M13.2381 1.64226C12.6348 0.785914 11.3652 0.785914 10.7619 1.64226L10.3759 2.19032C9.95449 2.78848 9.16571 2.99984 8.5017 2.6925L7.89332 2.41091C6.94272 1.97091 5.8432 2.60572 5.74894 3.64896L5.68862 4.31663C5.62278 5.04535 5.04535 5.62278 4.31663 5.68862L3.64896 5.74894C2.60572 5.8432 1.97091 6.94271 2.41091 7.89332L2.6925 8.5017C2.99984 9.16571 2.78848 9.95449 2.19032 10.3759L1.64226 10.7619C0.785914 11.3652 0.785914 12.6348 1.64226 13.2381L2.19032 13.6241C2.78848 14.0455 2.99984 14.8343 2.6925 15.4983L2.41091 16.1067C1.97091 17.0573 2.60572 18.1568 3.64896 18.2511L4.31663 18.3114C5.04535 18.3772 5.62278 18.9546 5.68862 19.6834L5.74894 20.351C5.8432 21.3943 6.94271 22.0291 7.89332 21.5891L8.5017 21.3075C9.16571 21.0002 9.95449 21.2115 10.3759 21.8097L10.7619 22.3577C11.3652 23.2141 12.6348 23.2141 13.2381 22.3577L13.6241 21.8097C14.0455 21.2115 14.8343 21.0002 15.4983 21.3075L16.1067 21.5891C17.0573 22.0291 18.1568 21.3943 18.2511 20.351L18.3114 19.6834C18.3772 18.9547 18.9547 18.3772 19.6834 18.3114L20.351 18.2511C21.3943 18.1568 22.0291 17.0573 21.5891 16.1067L21.3075 15.4983C21.0002 14.8343 21.2115 14.0455 21.8097 13.6241L22.3577 13.2381C23.2141 12.6348 23.2141 11.3652 22.3577 10.7619L21.8097 10.3759C21.2115 9.95449 21.0002 9.16571 21.3075 8.5017L21.5891 7.89332C22.0291 6.94271 21.3943 5.8432 20.351 5.74894L19.6834 5.68862C18.9547 5.62278 18.3772 5.04535 18.3114 4.31663L18.2511 3.64896C18.1568 2.60572 17.0573 1.97091 16.1067 2.41091L15.4983 2.6925C14.8343 2.99984 14.0455 2.78848 13.6241 2.19032L13.2381 1.64226ZM16.7071 10.2071C17.0976 9.81658 17.0976 9.18342 16.7071 8.79289C16.3166 8.40237 15.6834 8.40237 15.2929 8.79289L10.5 13.5858L8.70711 11.7929C8.31658 11.4024 7.68342 11.4024 7.29289 11.7929C6.90237 12.1834 6.90237 12.8166 7.29289 13.2071L9.79289 15.7071C10.1834 16.0976 10.8166 16.0976 11.2071 15.7071L16.7071 10.2071Z" fill="black"/>
</svg>
